{"title":"Caribe.1987.DVDRip.x264.AAC.-ROSTROMASCARADO","uid":10027735,"size":931177509,"categoryP":"video","categoryS":"movies","magnet":"?xt=urn:btih:2c788ead749fb342e9308680208a119e5681b7d4&amp;dn=Caribe.1987.DVDRip.x264.AAC.-ROSTROMASCARADO&amp;tr=udp%3A%2F%2Ftracker.openbittorrent.com%3A80&amp;tr=udp%3A%2F%2Fopen.demonii.com%3A1337&amp;tr=udp%3A%2F%2Ftracker.coppersurfer.tk%3A6969&amp;tr=udp%3A%2F%2Fexodus.desync.com%3A6969","seeders":1,"leechers":0,"uploader":"hotpena","files":5,"time":1398291295,"description":"\nSynopsis\nPrepare to get tangled in the jungles of Belize when an arms smuggler loses her partner in a deadly shootout and finds herself on the run in the tropics of Central America. Helen is an amateur, making her money as an illegal arms trader to Central American terrorists. And as she runs for her life after the deal goes bad, she has no choice but to trusts Jeff, a British Intelligence Agent - it's a life and death chase, where passion and loyalty are easily confused...\n &lt;a href=&quot;\nhttp://www.imdb.com/title/tt0092725/&quot; rel=&quot;nofollow&quot; target=&quot;_NEW&quot;&gt;\nhttp://www.imdb.com/title/tt0092725/&lt;/a&gt;\n\n\nGeneral\nFormat : MPEG-4\nFormat profile : Base Media / Version 2\nCodec ID : mp42\nFile size : 881 MiB\nDuration : 1h 27mn\nOverall bit rate mode : Variable\nOverall bit rate : 1 412 Kbps\nEncoded date : UTC 2014-04-19 00:40:15\nTagged date : UTC 2014-04-19 02:05:04\nDirector : Michael Kennedy\nWriter : Paul Donovan\nStars : John Savage, Kara Glover, Stephen McHattie\nGenres : Adventure / Thriller / Drama\nCountry : Canada\nLanguage : English\nRelease Date : December 21st, 2012\nProduction Company / Label : Trinity Home Entertainment Studio\nFilming Locations : Belize\n\nVideo\nID : 1\nFormat : AVC\nFormat/Info : Advanced Video Codec\nFormat profile : &lt;a class=&quot;__cf_email__&quot; href=&quot;/cdn-cgi/l/email-protection&quot; data-cfemail=&quot;d895b9b1b69894ecf6e8&quot;&gt;[email&amp;#160;protected]&lt;/a&gt;&lt;script cf-hash='f9e31' type=&quot;text/javascript&quot;&gt;\n/* &lt;![CDATA[ */!function(){try{var t=&quot;currentScript&quot;in document?document.currentScript:function(){for(var t=document.getElementsByTagName(&quot;script&quot;),e=t.length;e--;)if(t[e].getAttribute(&quot;cf-hash&quot;))return t[e]}();if(t&amp;&amp;t.previousSibling){var e,r,n,i,c=t.previousSibling,a=c.getAttribute(&quot;data-cfemail&quot;);if(a){for(e=&quot;&quot;,r=parseInt(a.substr(0,2),16),n=2;a.length-n;n+=2)i=parseInt(a.substr(n,2),16)^r,e+=String.fromCharCode(i);e=document.createTextNode(e),c.parentNode.replaceChild(e,c)}}}catch(u){}}();/* ]]&gt; */&lt;/script&gt;\nFormat settings, CABAC : Yes\nFormat settings, ReFrames : 4 frames\nCodec ID : avc1\nCodec ID/Info : Advanced Video Coding\nDuration : 1h 27mn\nBit rate mode : Variable\nBit rate : 1 200 Kbps\nWidth : 720 pixels\nHeight : 544 pixels\nDisplay aspect ratio : 4:3\nFrame rate mode : Variable\nFrame rate : 23.976 fps\nMinimum frame rate : 23.974 fps\nMaximum frame rate : 23.981 fps\nColor space : YUV\nChroma subsampling : 4:2:0\nBit depth : 8 bits\nScan type : Progressive\nBits/(Pixel*Frame) : 0.128\nStream size : 758 MiB (86%)\nWriting library : x264 core 130 r2273 b3065e6\nEncoded date : UTC 2014-04-19 00:40:15\nTagged date : UTC 2014-04-19 02:05:04\nColor primaries : BT.601 NTSC\nTransfer characteristics : BT.709\nMatrix coefficients : BT.601\n\nAudio\nID : 2\nFormat : AAC\nFormat/Info : Advanced Audio Codec\nFormat profile : LC\nCodec ID : 40\nDuration : 1h 27mn\nBit rate mode : Variable\nBit rate : 192 Kbps\nMaximum bit rate : 312 Kbps\nChannel count : 2 channels\nChannel positions : Front: L R\nSampling rate : 48.0 KHz\nCompression mode : Lossy\nDelay relative to video : 83ms\nStream size : 120 MiB (14%)\nLanguage : English\nEncoded date : UTC 2014-04-19 00:40:15\nTagged date : UTC 2014-04-19 02:05:03\n &lt;a href=&quot;\nhttp://www.imgclik.com/viewer.php?file=56787246845782205432.jpg&quot; rel=&quot;nofollow&quot; target=&quot;_NEW&quot;&gt;\nhttp://www.imgclik.com/viewer.php?file=56787246845782205432.jpg&lt;/a&gt;\n &lt;a href=&quot;\nhttp://www.imgclik.com/viewer.php?file=03544854692679911595.jpg&quot; rel=&quot;nofollow&quot; target=&quot;_NEW&quot;&gt;\nhttp://www.imgclik.com/viewer.php?file=03544854692679911595.jpg&lt;/a&gt;\n &lt;a href=&quot;\nhttp://www.imgclik.com/viewer.php?file=44621671994579534660.jpg&quot; rel=&quot;nofollow&quot; target=&quot;_NEW&quot;&gt;\nhttp://www.imgclik.com/viewer.php?file=44621671994579534660.jpg&lt;/a&gt;","torrent":{"xt":"urn:btih:2c788ead749fb342e9308680208a119e5681b7d4","amp;dn":"Caribe.1987.DVDRip.x264.AAC.-ROSTROMASCARADO","amp;tr":["udp%3A%2F%2Ftracker.openbittorrent.com%3A80","udp%3A%2F%2Fopen.demonii.com%3A1337","udp%3A%2F%2Ftracker.coppersurfer.tk%3A6969","udp%3A%2F%2Fexodus.desync.com%3A6969"],"infoHash":"2c788ead749fb342e9308680208a119e5681b7d4","infoHashBuffer":{"type":"Buffer","data":[44,120,142,173,116,159,179,66,233,48,134,128,32,138,17,158,86,129,183,212]},"announce":[],"urlList":[]}}